<svg width="20" height="20" viewBox="0 0 20 20" fill="none" xmlns="http://www.w3.org/2000/svg">
<path d="M0.999787 11H1.99979V18C1.99979 19.103 2.89679 20 3.99979 20H15.9998C17.1028 20 17.9998 19.103 17.9998 18V11H18.9998C19.1975 11 19.3908 10.9413 19.5552 10.8314C19.7197 10.7215 19.8478 10.5654 19.9235 10.3827C19.9991 10.2 20.0189 9.99894 19.9804 9.80499C19.9418 9.61103 19.8466 9.43287 19.7068 9.29302L10.7068 0.293018C10.614 0.200072 10.5038 0.126334 10.3825 0.0760237C10.2612 0.025713 10.1311 -0.000183105 9.99979 -0.000183105C9.86845 -0.000183105 9.73841 0.025713 9.61709 0.0760237C9.49578 0.126334 9.38558 0.200072 9.29279 0.293018L0.292787 9.29302C0.152977 9.43287 0.057771 9.61103 0.0192035 9.80499C-0.0193641 9.99894 0.000438951 10.2 0.076109 10.3827C0.151779 10.5654 0.279918 10.7215 0.444328 10.8314C0.608738 10.9413 0.802037 11 0.999787 11ZM7.99979 18V13H11.9998V18H7.99979ZM9.99979 2.41402L15.9998 8.41402V13L16.0008 18H13.9998V13C13.9998 11.897 13.1028 11 11.9998 11H7.99979C6.89679 11 5.99979 11.897 5.99979 13V18H3.99979V8.41402L9.99979 2.41402Z" fill="#ECEDEE"/>
</svg>
