<svg width="24" height="24" viewBox="0 0 24 24" fill="none" xmlns="http://www.w3.org/2000/svg">
<rect width="24" height="24" fill="#DCDCDC"/>
<g clip-path="url(#clip0_17_3)">
<rect width="1440" height="1027" transform="translate(-16 -139)" fill="white"/>
<mask id="path-1-inside-1_17_3" fill="white">
<path d="M-16 -136H304V888H-16V-136Z"/>
</mask>
<path d="M-16 -136H304V888H-16V-136Z" fill="#1A1D1E"/>
<path d="M303 -136V888H305V-136H303Z" fill="#4C5155" mask="url(#path-1-inside-1_17_3)"/>
<path d="M-16 -16.5H259.5C275.24 -16.5 288 -3.74012 288 12C288 27.7401 275.24 40.5 259.5 40.5H-16V-16.5Z" fill="#3E63DD"/>
<path d="M2.99979 13H3.99979V20C3.99979 21.103 4.89679 22 5.99979 22H17.9998C19.1028 22 19.9998 21.103 19.9998 20V13H20.9998C21.1975 13 21.3908 12.9413 21.5552 12.8314C21.7197 12.7215 21.8478 12.5654 21.9235 12.3827C21.9991 12.2 22.0189 11.9989 21.9804 11.805C21.9418 11.611 21.8466 11.4329 21.7068 11.293L12.7068 2.29302C12.614 2.20007 12.5038 2.12633 12.3825 2.07602C12.2612 2.02571 12.1311 1.99982 11.9998 1.99982C11.8685 1.99982 11.7384 2.02571 11.6171 2.07602C11.4958 2.12633 11.3856 2.20007 11.2928 2.29302L2.29279 11.293C2.15298 11.4329 2.05777 11.611 2.0192 11.805C1.98064 11.9989 2.00044 12.2 2.07611 12.3827C2.15178 12.5654 2.27992 12.7215 2.44433 12.8314C2.60874 12.9413 2.80204 13 2.99979 13ZM9.99979 20V15H13.9998V20H9.99979ZM11.9998 4.41402L17.9998 10.414V15L18.0008 20H15.9998V15C15.9998 13.897 15.1028 13 13.9998 13H9.99979C8.89679 13 7.99979 13.897 7.99979 15V20H5.99979V10.414L11.9998 4.41402Z" fill="#ECEDEE"/>
</g>
<defs>
<clipPath id="clip0_17_3">
<rect width="1440" height="1027" fill="white" transform="translate(-16 -139)"/>
</clipPath>
</defs>
</svg>
