<svg width="24" height="24" viewBox="0 0 24 24" fill="none" xmlns="http://www.w3.org/2000/svg">
<rect width="24" height="24" fill="#DCDCDC"/>
<g clip-path="url(#clip0_17_3)">
<rect width="1440" height="1027" transform="translate(-16 -211)" fill="white"/>
<mask id="path-1-inside-1_17_3" fill="white">
<path d="M-16 -208H304V816H-16V-208Z"/>
</mask>
<path d="M-16 -208H304V816H-16V-208Z" fill="#1A1D1E"/>
<path d="M303 -208V816H305V-208H303Z" fill="#4C5155" mask="url(#path-1-inside-1_17_3)"/>
<path d="M12 22C13.1 22 14 21.1 14 20H10C10 21.1 10.9 22 12 22ZM18 16V11C18 7.93 16.37 5.36 13.5 4.68V4C13.5 3.17 12.83 2.5 12 2.5C11.17 2.5 10.5 3.17 10.5 4V4.68C7.64 5.36 6 7.92 6 11V16L4 18V19H20V18L18 16ZM16 17H8V11C8 8.52 9.51 6.5 12 6.5C14.49 6.5 16 8.52 16 11V17Z" fill="#ECEDEE"/>
</g>
<defs>
<clipPath id="clip0_17_3">
<rect width="1440" height="1027" fill="white" transform="translate(-16 -211)"/>
</clipPath>
</defs>
</svg>
